<svg xmlns="http://www.w3.org/2000/svg" viewBox="13.089996337890625 87.52000427246094 548.8200073242188 399.960000038147"> <svg xmlns="http://www.w3.org/2000/svg" viewBox="0 0 61 61.000099182128906" fill="none" height="130" width="129.99979301120925" y="157.52000427246094" x="222.4999203889265" preserveAspectRatio="xMinYMin" style="overflow: visible;"><path fill-rule="evenodd" clip-rule="evenodd" d="M28.8454 0H0V28.8225H7.4115V7.15989H28.8454V0ZM18.1322 18.3153H39.5661V0H32.1622V10.5072H10.7207V32.1699H0V39.9855H18.1322V18.3153ZM42.8753 0H60.9999V18.3153H42.8753V0ZM39.5662 21.6627H21.4415V39.9779H39.5662V21.6627ZM42.8754 43.3329V21.6627H61V28.8225H50.2869V50.4928H28.8454V61H21.4415V43.3329H42.8754ZM18.1246 43.333H0V61.0001H18.1246V43.333ZM61 60.9999H32.1623V53.8401H53.5962V32.1698H61V60.9999Z" fill="url(#paint0_radial_28947_1736)" style="fill: url(#paint0_radial_28947_1736);"></path><radialGradient id="paint0_radial_28947_1736" cx="0" cy="0" r="1" gradientUnits="userSpaceOnUse" gradientTransform="translate(31 30.5) rotate(45) scale(64.3467 64.3637)" style=""><stop offset="0.275" stop-color="#3961EC"></stop><stop offset="1" stop-color="#3961EC" stop-opacity="0"></stop></radialGradient></svg> <svg y="403.52000427246094" viewBox="1.059999942779541 -0.05000000447034836 408.82000732421875 13.960000038146973" x="83.08999633789062" height="13.960000038146973" width="408.82000732421875" xmlns="http://www.w3.org/2000/svg" style="overflow: visible;"><g fill="#000056" fill-opacity="0.7" style=""><path d="M10.69 10.98L11.43 12.53Q11.11 12.74 10.55 13.01Q9.99 13.28 9.24 13.46Q8.50 13.64 7.61 13.64L7.61 13.64Q6.10 13.63 4.89 13.10Q3.67 12.58 2.83 11.68Q1.98 10.78 1.52 9.60Q1.06 8.42 1.06 7.09L1.06 7.09Q1.06 5.63 1.54 4.40Q2.02 3.17 2.88 2.26Q3.74 1.35 4.92 0.85Q6.10 0.34 7.51 0.34L7.51 0.34Q8.68 0.34 9.63 0.66Q10.58 0.97 11.27 1.40L11.27 1.40L10.57 3.02Q10.03 2.66 9.26 2.34Q8.50 2.02 7.56 2.02L7.56 2.02Q6.61 2.02 5.76 2.39Q4.91 2.77 4.27 3.46Q3.62 4.14 3.25 5.05Q2.88 5.96 2.88 7.00L2.88 7.00Q2.88 8.06 3.21 8.97Q3.55 9.88 4.17 10.55Q4.79 11.21 5.67 11.59Q6.55 11.97 7.65 11.97L7.65 11.97Q8.64 11.97 9.41 11.66Q10.19 11.36 10.69 10.98L10.69 10.98ZM17.15 7.00L17.15 7.00Q17.15 5.65 17.67 4.46Q18.18 3.26 19.10 2.33Q20.02 1.40 21.21 0.87Q22.41 0.34 23.80 0.34L23.80 0.34Q25.16 0.34 26.36 0.87Q27.56 1.40 28.49 2.33Q29.41 3.26 29.93 4.46Q30.46 5.65 30.46 7.00L30.46 7.00Q30.46 8.39 29.93 9.59Q29.41 10.80 28.49 11.71Q27.58 12.62 26.37 13.13Q25.16 13.64 23.80 13.64L23.80 13.64Q22.41 13.64 21.21 13.14Q20.02 12.64 19.10 11.74Q18.18 10.84 17.67 9.63Q17.15 8.42 17.15 7.00ZM18.95 7.02L18.95 7.02Q18.95 8.05 19.33 8.94Q19.71 9.83 20.38 10.51Q21.04 11.20 21.92 11.58Q22.81 11.97 23.83 11.97L23.83 11.97Q24.84 11.97 25.72 11.58Q26.60 11.20 27.25 10.51Q27.90 9.83 28.28 8.94Q28.66 8.05 28.66 7.00L28.66 7.00Q28.66 5.98 28.28 5.07Q27.90 4.16 27.23 3.47Q26.57 2.79 25.69 2.40Q24.80 2.02 23.80 2.02L23.80 2.02Q22.77 2.02 21.89 2.41Q21.01 2.81 20.34 3.49Q19.67 4.18 19.31 5.09Q18.95 5.99 18.95 7.02ZM48.31 13.91L48.26 13.91L38.20 3.71L38.70 3.83L38.74 13.50L36.99 13.50L36.99 0.09L37.08 0.09L47.03 10.33L46.62 10.24L46.58 0.49L48.31 0.49L48.31 13.91ZM54.70 2.16L54.70 0.49L63.34 0.49L63.34 2.16L59.85 2.16L59.85 13.50L58.10 13.50L58.10 2.16L54.70 2.16ZM69.71 0.49L73.17 0.49Q74.16 0.49 75.00 0.75Q75.83 1.01 76.45 1.52Q77.08 2.03 77.43 2.78Q77.78 3.53 77.78 4.52L77.78 4.52Q77.78 5.29 77.55 6.03Q77.33 6.77 76.81 7.37Q76.28 7.97 75.45 8.34Q74.61 8.71 73.39 8.71L73.39 8.71L71.46 8.71L71.46 13.50L69.71 13.50L69.71 0.49ZM71.46 7.04L73.35 7.04Q74.12 7.04 74.64 6.80Q75.15 6.57 75.44 6.20Q75.73 5.83 75.85 5.40Q75.98 4.97 75.98 4.59L75.98 4.59Q75.98 4.19 75.84 3.77Q75.71 3.35 75.41 2.99Q75.11 2.63 74.64 2.39Q74.16 2.16 73.48 2.16L73.48 2.16L71.46 2.16L71.46 7.04ZM73.42 8.08L75.49 8.03L78.89 13.50L76.88 13.50L73.42 8.08ZM84.08 7.00L84.08 7.00Q84.08 5.65 84.59 4.46Q85.10 3.26 86.02 2.33Q86.94 1.40 88.14 0.87Q89.33 0.34 90.72 0.34L90.72 0.34Q92.09 0.34 93.29 0.87Q94.48 1.40 95.41 2.33Q96.34 3.26 96.86 4.46Q97.38 5.65 97.38 7.00L97.38 7.00Q97.38 8.39 96.86 9.59Q96.34 10.80 95.42 11.71Q94.50 12.62 93.29 13.13Q92.09 13.64 90.72 13.64L90.72 13.64Q89.33 13.64 88.14 13.14Q86.94 12.64 86.02 11.74Q85.10 10.84 84.59 9.63Q84.08 8.42 84.08 7.00ZM85.88 7.02L85.88 7.02Q85.88 8.05 86.26 8.94Q86.63 9.83 87.30 10.51Q87.97 11.20 88.85 11.58Q89.73 11.97 90.76 11.97L90.76 11.97Q91.76 11.97 92.65 11.58Q93.53 11.20 94.18 10.51Q94.82 9.83 95.20 8.94Q95.58 8.05 95.58 7.00L95.58 7.00Q95.58 5.98 95.20 5.07Q94.82 4.16 94.16 3.47Q93.49 2.79 92.61 2.40Q91.73 2.02 90.72 2.02L90.72 2.02Q89.69 2.02 88.81 2.41Q87.93 2.81 87.26 3.49Q86.60 4.18 86.24 5.09Q85.88 5.99 85.88 7.02ZM103.91 13.50L103.91 0.49L105.66 0.49L105.66 11.83L112.27 11.83L112.27 13.50L103.91 13.50ZM131.45 13.50L131.45 9.16L126.63 0.49L128.77 0.49L132.64 7.67L132.10 7.70L135.94 0.49L138.06 0.49L133.20 9.16L133.20 13.50L131.45 13.50ZM142.18 7.00L142.18 7.00Q142.18 5.65 142.69 4.46Q143.21 3.26 144.13 2.33Q145.04 1.40 146.24 0.87Q147.44 0.34 148.82 0.34L148.82 0.34Q150.19 0.34 151.39 0.87Q152.59 1.40 153.51 2.33Q154.44 3.26 154.96 4.46Q155.48 5.65 155.48 7.00L155.48 7.00Q155.48 8.39 154.96 9.59Q154.44 10.80 153.52 11.71Q152.60 12.62 151.40 13.13Q150.19 13.64 148.82 13.64L148.82 13.64Q147.44 13.64 146.24 13.14Q145.04 12.64 144.13 11.74Q143.21 10.84 142.69 9.63Q142.18 8.42 142.18 7.00ZM143.98 7.02L143.98 7.02Q143.98 8.05 144.36 8.94Q144.74 9.83 145.40 10.51Q146.07 11.20 146.95 11.58Q147.83 11.97 148.86 11.97L148.86 11.97Q149.87 11.97 150.75 11.58Q151.63 11.20 152.28 10.51Q152.93 9.83 153.31 8.94Q153.68 8.05 153.68 7.00L153.68 7.00Q153.68 5.98 153.31 5.07Q152.93 4.16 152.26 3.47Q151.60 2.79 150.71 2.40Q149.83 2.02 148.82 2.02L148.82 2.02Q147.80 2.02 146.92 2.41Q146.03 2.81 145.37 3.49Q144.70 4.18 144.34 5.09Q143.98 5.99 143.98 7.02ZM163.58 0.49L163.58 8.89Q163.58 9.77 164.01 10.47Q164.43 11.16 165.13 11.56Q165.83 11.95 166.72 11.95L166.72 11.95Q167.63 11.95 168.35 11.56Q169.07 11.16 169.49 10.47Q169.90 9.77 169.90 8.89L169.90 8.89L169.90 0.49L171.61 0.49L171.61 8.95Q171.61 10.37 170.95 11.43Q170.30 12.49 169.19 13.07Q168.08 13.64 166.72 13.64L166.72 13.64L166.72 13.64Q165.35 13.64 164.25 13.07Q163.15 12.49 162.50 11.43Q161.86 10.37 161.86 8.95L161.86 8.95L161.86 0.49L163.58 0.49ZM178.78 0.49L182.23 0.49Q183.22 0.49 184.06 0.75Q184.90 1.01 185.52 1.52Q186.14 2.03 186.49 2.78Q186.84 3.53 186.84 4.52L186.84 4.52Q186.84 5.29 186.61 6.03Q186.39 6.77 185.87 7.37Q185.35 7.97 184.51 8.34Q183.67 8.71 182.45 8.71L182.45 8.71L180.52 8.71L180.52 13.50L178.78 13.50L178.78 0.49ZM180.52 7.04L182.41 7.04Q183.19 7.04 183.70 6.80Q184.21 6.57 184.50 6.20Q184.79 5.83 184.91 5.40Q185.04 4.97 185.04 4.59L185.04 4.59Q185.04 4.19 184.90 3.77Q184.77 3.35 184.47 2.99Q184.18 2.63 183.70 2.39Q183.22 2.16 182.54 2.16L182.54 2.16L180.52 2.16L180.52 7.04ZM182.48 8.08L184.55 8.03L187.96 13.50L185.94 13.50L182.48 8.08ZM203.53 13.50L203.53 0.49L211.25 0.49L211.25 2.16L205.27 2.16L205.27 6.32L210.51 6.32L210.51 7.97L205.27 7.97L205.27 13.50L203.53 13.50ZM219.29 0.49L219.29 8.89Q219.29 9.77 219.72 10.47Q220.14 11.16 220.84 11.56Q221.54 11.95 222.43 11.95L222.43 11.95Q223.34 11.95 224.06 11.56Q224.78 11.16 225.20 10.47Q225.61 9.77 225.61 8.89L225.61 8.89L225.61 0.49L227.32 0.49L227.32 8.95Q227.32 10.37 226.66 11.43Q226.01 12.49 224.90 13.07Q223.79 13.64 222.43 13.64L222.43 13.64L222.43 13.64Q221.06 13.64 219.96 13.07Q218.86 12.49 218.21 11.43Q217.57 10.37 217.57 8.95L217.57 8.95L217.57 0.49L219.29 0.49ZM245.81 13.91L245.75 13.91L235.69 3.71L236.20 3.83L236.23 13.50L234.49 13.50L234.49 0.09L234.58 0.09L244.53 10.33L244.12 10.24L244.08 0.49L245.81 0.49L245.81 13.91ZM257.33 13.50L253.15 13.50L253.15 0.49L256.70 0.49Q258.62 0.49 259.98 1.08Q261.34 1.67 262.17 2.65Q263.00 3.62 263.38 4.80Q263.77 5.98 263.77 7.15L263.77 7.15Q263.77 8.62 263.26 9.79Q262.75 10.96 261.85 11.79Q260.95 12.62 259.78 13.06Q258.62 13.50 257.33 13.50L257.33 13.50ZM254.90 2.16L254.90 11.83L256.99 11.83Q258.07 11.83 258.97 11.50Q259.88 11.18 260.56 10.57Q261.23 9.95 261.61 9.06Q261.99 8.17 261.99 7.04L261.99 7.04Q261.99 5.83 261.59 4.92Q261.20 4.01 260.51 3.40Q259.83 2.79 258.97 2.47Q258.10 2.16 257.15 2.16L257.15 2.16L254.90 2.16ZM277.70 1.46L277.04 2.81Q276.37 2.47 275.58 2.21Q274.79 1.96 274.03 1.96L274.03 1.96Q272.99 1.96 272.37 2.45Q271.75 2.93 271.75 3.74L271.75 3.74Q271.75 4.36 272.14 4.78Q272.54 5.20 273.19 5.51Q273.83 5.81 274.54 6.08L274.54 6.08Q275.15 6.32 275.74 6.61Q276.34 6.89 276.81 7.33Q277.29 7.76 277.57 8.39Q277.85 9.02 277.85 9.95L277.85 9.95Q277.85 10.98 277.33 11.83Q276.82 12.67 275.87 13.16Q274.91 13.64 273.60 13.64L273.60 13.64Q272.74 13.64 271.95 13.45Q271.17 13.25 270.50 12.93Q269.84 12.62 269.32 12.28L269.32 12.28L270.09 10.91Q270.52 11.21 271.08 11.49Q271.64 11.77 272.25 11.94Q272.86 12.11 273.44 12.11L273.44 12.11Q274.05 12.11 274.65 11.89Q275.26 11.66 275.65 11.20Q276.05 10.73 276.05 9.95L276.05 9.95Q276.05 9.29 275.70 8.85Q275.35 8.41 274.77 8.09Q274.19 7.78 273.55 7.52L273.55 7.52Q272.93 7.29 272.30 7.01Q271.67 6.73 271.13 6.33Q270.59 5.92 270.27 5.33Q269.95 4.73 269.95 3.89L269.95 3.89Q269.95 2.86 270.44 2.10Q270.94 1.33 271.80 0.89Q272.66 0.45 273.78 0.41L273.78 0.41Q275.04 0.41 276.00 0.72Q276.97 1.03 277.70 1.46L277.70 1.46ZM294.08 13.50L292.37 13.50L298.06-0.05L298.17-0.05L303.84 13.50L301.84 13.50L297.59 2.68L298.84 1.87L294.08 13.50ZM295.20 10.08L295.70 8.57L300.55 8.57L301.12 10.08L295.20 10.08ZM321.21 13.91L321.16 13.91L311.09 3.71L311.60 3.83L311.63 13.50L309.89 13.50L309.89 0.09L309.98 0.09L319.93 10.33L319.52 10.24L319.48 0.49L321.21 0.49L321.21 13.91ZM332.73 13.50L328.55 13.50L328.55 0.49L332.10 0.49Q334.03 0.49 335.38 1.08Q336.74 1.67 337.57 2.65Q338.40 3.62 338.79 4.80Q339.17 5.98 339.17 7.15L339.17 7.15Q339.17 8.62 338.66 9.79Q338.15 10.96 337.25 11.79Q336.35 12.62 335.19 13.06Q334.03 13.50 332.73 13.50L332.73 13.50ZM330.30 2.16L330.30 11.83L332.39 11.83Q333.47 11.83 334.38 11.50Q335.29 11.18 335.96 10.57Q336.64 9.95 337.01 9.06Q337.39 8.17 337.39 7.04L337.39 7.04Q337.39 5.83 337.00 4.92Q336.60 4.01 335.92 3.40Q335.23 2.79 334.37 2.47Q333.50 2.16 332.55 2.16L332.55 2.16L330.30 2.16ZM359.17 13.50L355.00 13.50L355.00 0.49L358.54 0.49Q360.47 0.49 361.83 1.08Q363.19 1.67 364.01 2.65Q364.84 3.62 365.23 4.80Q365.62 5.98 365.62 7.15L365.62 7.15Q365.62 8.62 365.10 9.79Q364.59 10.96 363.69 11.79Q362.79 12.62 361.63 13.06Q360.47 13.50 359.17 13.50L359.17 13.50ZM356.74 2.16L356.74 11.83L358.83 11.83Q359.91 11.83 360.82 11.50Q361.73 11.18 362.40 10.57Q363.08 9.95 363.46 9.06Q363.83 8.17 363.83 7.04L363.83 7.04Q363.83 5.83 363.44 4.92Q363.04 4.01 362.36 3.40Q361.67 2.79 360.81 2.47Q359.95 2.16 358.99 2.16L358.99 2.16L356.74 2.16ZM371.86 13.50L370.15 13.50L375.84-0.05L375.95-0.05L381.62 13.50L379.62 13.50L375.37 2.68L376.61 1.87L371.86 13.50ZM372.98 10.08L373.48 8.57L378.32 8.57L378.90 10.08L372.98 10.08ZM385.70 2.16L385.70 0.49L394.34 0.49L394.34 2.16L390.85 2.16L390.85 13.50L389.11 13.50L389.11 2.16L385.70 2.16ZM400.12 13.50L398.41 13.50L404.10-0.05L404.21-0.05L409.88 13.50L407.88 13.50L403.63 2.68L404.87 1.87L400.12 13.50ZM401.24 10.08L401.74 8.57L406.58 8.57L407.16 10.08L401.24 10.08Z" transform="translate(0, 0)"></path></g></svg> <svg y="320.52000427246094" viewBox="3.109999895095825 13.869999885559082 263.6800231933594 51.79000473022461" x="155.6599884033203" height="51.79000473022461" width="263.6800231933594" xmlns="http://www.w3.org/2000/svg" style="overflow: visible;"><g fill="#000056" fill-opacity="1" style=""><path d="M22.02 65.66L22.02 65.66Q16.36 65.66 12.19 63.89Q8.02 62.13 5.66 58.76Q3.30 55.39 3.11 50.58L3.11 50.58L11.71 50.58Q11.94 53.13 13.31 54.83Q14.69 56.53 16.95 57.37Q19.20 58.20 21.95 58.20L21.95 58.20Q24.83 58.20 27.04 57.32Q29.25 56.43 30.49 54.85Q31.73 53.26 31.73 51.17L31.73 51.17Q31.73 49.27 30.64 48.03Q29.54 46.78 27.56 45.92Q25.58 45.05 22.93 44.39L22.93 44.39L17.40 42.95Q11.29 41.38 7.87 38.21Q4.45 35.04 4.45 29.87L4.45 29.87Q4.45 25.55 6.77 22.31Q9.09 19.07 13.12 17.29Q17.14 15.51 22.25 15.51L22.25 15.51Q27.45 15.51 31.37 17.31Q35.30 19.11 37.51 22.28Q39.72 25.45 39.81 29.51L39.81 29.51L31.34 29.51Q31.01 26.37 28.54 24.65Q26.07 22.93 22.12 22.93L22.12 22.93Q19.37 22.93 17.39 23.77Q15.41 24.60 14.35 26.04Q13.28 27.48 13.28 29.35L13.28 29.35Q13.28 31.37 14.54 32.68Q15.80 33.99 17.72 34.78Q19.63 35.56 21.59 36.05L21.59 36.05L26.14 37.23Q28.85 37.88 31.41 38.96Q33.96 40.04 36.00 41.70Q38.05 43.35 39.26 45.70Q40.47 48.06 40.47 51.23L40.47 51.23Q40.47 55.52 38.28 58.77Q36.08 62.03 31.96 63.84Q27.84 65.66 22.02 65.66ZM58.30 65.66L58.30 65.66Q54.83 65.66 52.05 64.40Q49.27 63.14 47.67 60.69Q46.06 58.23 46.06 54.63L46.06 54.63Q46.06 51.53 47.22 49.50Q48.39 47.47 50.36 46.26Q52.34 45.05 54.83 44.43Q57.32 43.81 60.00 43.54L60.00 43.54Q63.17 43.18 65.17 42.92Q67.16 42.66 68.10 42.07Q69.03 41.48 69.03 40.24L69.03 40.24L69.03 40.08Q69.03 38.28 68.31 37.02Q67.59 35.76 66.17 35.09Q64.74 34.42 62.65 34.42L62.65 34.42Q60.52 34.42 58.97 35.07Q57.41 35.72 56.43 36.77Q55.45 37.82 54.99 39.03L54.99 39.03L47.11 37.43Q48.19 34.19 50.45 32.08Q52.70 29.97 55.83 28.92Q58.95 27.87 62.62 27.87L62.62 27.87Q65.20 27.87 67.83 28.48Q70.47 29.08 72.66 30.52Q74.85 31.96 76.19 34.38Q77.53 36.80 77.53 40.47L77.53 40.47L77.53 64.91L69.39 64.91L69.39 59.87L69.06 59.87Q68.24 61.41 66.82 62.73Q65.40 64.06 63.29 64.86Q61.18 65.66 58.30 65.66ZM60.49 59.34L60.49 59.34Q63.14 59.34 65.05 58.30Q66.97 57.25 68.03 55.53Q69.09 53.82 69.09 51.79L69.09 51.79L69.09 47.47Q68.67 47.80 67.67 48.09Q66.67 48.39 65.45 48.61Q64.22 48.84 63.03 49.01Q61.83 49.17 61.01 49.27L61.01 49.27Q59.12 49.53 57.58 50.12Q56.04 50.71 55.17 51.77Q54.31 52.83 54.31 54.54L54.31 54.54Q54.31 56.11 55.11 57.17Q55.91 58.23 57.30 58.79Q58.69 59.34 60.49 59.34ZM82.70 28.33L105.80 28.33L105.80 35.00L82.70 35.00L82.70 28.33ZM97.88 64.91L89.41 64.91L89.41 24.83Q89.41 21.17 90.93 18.75Q92.45 16.32 95.05 15.10Q97.65 13.87 100.76 13.87L100.76 13.87Q103.02 13.87 104.75 14.23Q106.49 14.59 107.30 14.89L107.30 14.89L105.57 21.49Q105.01 21.33 104.21 21.15Q103.41 20.97 102.33 20.97L102.33 20.97Q99.94 20.97 98.91 22.15Q97.88 23.33 97.88 25.48L97.88 25.48L97.88 64.91ZM128.77 65.66L128.77 65.66Q123.24 65.66 119.26 63.34Q115.29 61.01 113.14 56.79Q111.00 52.57 111.00 46.85L111.00 46.85Q111.00 41.19 113.11 36.94Q115.22 32.68 119.10 30.28Q122.98 27.87 128.21 27.87L128.21 27.87Q131.55 27.87 134.57 28.95Q137.60 30.03 139.94 32.29Q142.28 34.55 143.60 38.03Q144.93 41.52 144.93 46.32L144.93 46.32L144.93 49.01L115.03 49.01L115.03 43.22L140.71 43.22L136.72 44.92Q136.72 41.84 135.77 39.50Q134.82 37.16 132.94 35.86Q131.06 34.55 128.24 34.55L128.24 34.55Q125.43 34.55 123.47 35.87Q121.50 37.20 120.47 39.41Q119.44 41.61 119.44 44.33L119.44 44.33L119.44 48.32Q119.44 51.79 120.62 54.18Q121.80 56.56 123.92 57.77Q126.05 58.98 128.86 58.98L128.86 58.98Q130.73 58.98 132.25 58.45Q133.77 57.91 134.88 56.84Q136.00 55.78 136.55 54.24L136.55 54.24L144.37 55.84Q143.49 58.79 141.36 61.00Q139.23 63.21 136.04 64.43Q132.85 65.66 128.77 65.66ZM171.52 65.56L171.52 65.56Q168.42 65.56 166.32 64.50Q164.23 63.43 162.99 61.93Q161.74 60.42 161.09 59.12L161.09 59.12L160.53 59.12L160.53 64.91L152.22 64.91L152.22 16.16L160.73 16.16L160.73 34.38L161.09 34.38Q161.74 33.07 162.95 31.57Q164.16 30.06 166.24 28.97Q168.32 27.87 171.56 27.87L171.56 27.87Q175.81 27.87 179.21 30.03Q182.61 32.19 184.63 36.40Q186.64 40.60 186.64 46.68L186.64 46.68Q186.64 52.70 184.68 56.92Q182.71 61.14 179.29 63.35Q175.88 65.56 171.52 65.56ZM169.23 58.56L169.23 58.56Q172.08 58.56 174.01 57.01Q175.94 55.45 176.92 52.75Q177.90 50.05 177.90 46.65L177.90 46.65Q177.90 43.25 176.94 40.58Q175.97 37.92 174.04 36.40Q172.11 34.87 169.23 34.87L169.23 34.87Q166.42 34.87 164.49 36.35Q162.56 37.82 161.56 40.45Q160.56 43.09 160.56 46.65L160.56 46.65Q160.56 50.22 161.56 52.90Q162.56 55.58 164.51 57.07Q166.45 58.56 169.23 58.56ZM209.90 65.66L209.90 65.66Q204.57 65.66 200.64 63.29Q196.71 60.92 194.57 56.68Q192.43 52.44 192.43 46.81L192.43 46.81Q192.43 41.12 194.57 36.85Q196.71 32.58 200.64 30.23Q204.57 27.87 209.90 27.87L209.90 27.87Q215.26 27.87 219.19 30.23Q223.12 32.58 225.26 36.85Q227.40 41.12 227.40 46.81L227.40 46.81Q227.40 52.44 225.26 56.68Q223.12 60.92 219.19 63.29Q215.26 65.66 209.90 65.66ZM209.90 58.76L209.90 58.76Q212.88 58.76 214.85 57.15Q216.83 55.55 217.80 52.83Q218.76 50.12 218.76 46.78L218.76 46.78Q218.76 43.41 217.80 40.70Q216.83 37.98 214.85 36.38Q212.88 34.78 209.90 34.78L209.90 34.78Q206.92 34.78 204.97 36.38Q203.03 37.98 202.06 40.68Q201.10 43.38 201.10 46.78L201.10 46.78Q201.10 50.12 202.06 52.83Q203.03 55.55 204.97 57.15Q206.92 58.76 209.90 58.76ZM241.14 64.91L231.95 64.91L246.18 42.82L246.15 49.43L232.67 28.33L242.02 28.33L245.75 34.55Q247.39 37.33 248.67 39.98Q249.94 42.63 251.25 45.11L251.25 45.11L247.72 45.11Q249.09 42.66 250.32 39.99Q251.54 37.33 253.21 34.55L253.21 34.55L257.07 28.33L266.23 28.33L252.56 49.56L252.56 43.12L266.79 64.91L257.50 64.91L252.98 57.58Q251.35 54.80 250.06 52.18Q248.76 49.56 247.46 47.17L247.46 47.17L250.99 47.17Q249.68 49.56 248.49 52.18Q247.29 54.80 245.66 57.58L245.66 57.58L241.14 64.91Z" transform="translate(0, 0)"></path></g></svg></svg>